<?xml version="1.0" encoding="UTF-8" standalone="no"?>
<!DOCTYPE svg PUBLIC "-//W3C//DTD SVG 1.1//EN"
 "http://www.w3.org/Graphics/SVG/1.1/DTD/svg11.dtd">
<!-- Generated by graphviz version 14.0.5 (20251129.0259)
 -->
<!-- Title: TNL_Architecture Pages: 1 -->
<svg width="606pt" height="780pt"
 viewBox="0.00 0.00 606.00 780.00" xmlns="http://www.w3.org/2000/svg" xmlns:xlink="http://www.w3.org/1999/xlink">
<g id="graph0" class="graph" transform="scale(1 1) rotate(0) translate(4 775.74)">
<title>TNL_Architecture</title>
<polygon fill="white" stroke="none" points="-4,4 -4,-775.74 602,-775.74 602,4 -4,4"/>
<g id="clust1" class="cluster">
<title>cluster_tsang</title>
<polygon fill="#f3e5f5" stroke="#7b1fa2" stroke-width="2" points="408,-429.18 408,-697.74 540,-697.74 540,-429.18 408,-429.18"/>
<text xml:space="preserve" text-anchor="middle" x="474" y="-680.44" font-family="Times,serif" font-size="14.00">Tsang (Ruby)</text>
</g>
<g id="clust2" class="cluster">
<title>cluster_leng</title>
<polygon fill="#e1f5fe" stroke="#0277bd" stroke-width="2" points="8,-130.62 8,-299.16 448,-299.16 448,-130.62 8,-130.62"/>
<text xml:space="preserve" text-anchor="middle" x="228" y="-281.86" font-family="Times,serif" font-size="14.00">Leng Library (Clojure)</text>
</g>
<g id="clust3" class="cluster">
<title>cluster_databases</title>
</g>
<!-- SQL -->
<g id="node1" class="node">
<title>SQL</title>
<polygon fill="#fff9c4" stroke="#f57f17" stroke-width="2" points="505.89,-771.74 436.11,-771.74 436.11,-735.74 511.89,-735.74 511.89,-765.74 505.89,-771.74"/>
<polyline fill="none" stroke="#f57f17" stroke-width="2" points="505.89,-771.74 505.89,-765.74"/>
<polyline fill="none" stroke="#f57f17" stroke-width="2" points="511.89,-765.74 505.89,-765.74"/>
<text xml:space="preserve" text-anchor="middle" x="474" y="-749.47" font-family="Arial" font-size="12.00">SQL Query</text>
</g>
<!-- Parser -->
<g id="node2" class="node">
<title>Parser</title>
<path fill="#ce93d8" stroke="#1976d2" stroke-width="2" d="M513.39,-665.24C513.39,-665.24 434.61,-665.24 434.61,-665.24 428.61,-665.24 422.61,-659.24 422.61,-653.24 422.61,-653.24 422.61,-637.22 422.61,-637.22 422.61,-631.22 428.61,-625.22 434.61,-625.22 434.61,-625.22 513.39,-625.22 513.39,-625.22 519.39,-625.22 525.39,-631.22 525.39,-637.22 525.39,-637.22 525.39,-653.24 525.39,-653.24 525.39,-659.24 519.39,-665.24 513.39,-665.24"/>
<text xml:space="preserve" text-anchor="middle" x="474" y="-648.08" font-family="Arial" font-size="12.00">SQL Parser</text>
<text xml:space="preserve" text-anchor="middle" x="474" y="-633.83" font-family="Arial" font-size="12.00">(Lexer + Parser)</text>
</g>
<!-- SQL&#45;&gt;Parser -->
<g id="edge1" class="edge">
<title>SQL&#45;&gt;Parser</title>
<path fill="none" stroke="#1976d2" stroke-width="2" d="M474,-735.15C474,-719.92 474,-697.47 474,-678.95"/>
<polygon fill="#1976d2" stroke="#1976d2" stroke-width="2" points="477.5,-679.05 474,-669.05 470.5,-679.05 477.5,-679.05"/>
<text xml:space="preserve" text-anchor="middle" x="489" y="-708.24" font-family="Arial" font-size="10.00"> &#160;parse</text>
</g>
<!-- AST -->
<g id="node3" class="node">
<title>AST</title>
<path fill="#ba68c8" stroke="#1976d2" stroke-width="2" d="M512.26,-565.22C512.26,-565.22 435.74,-565.22 435.74,-565.22 429.74,-565.22 423.74,-559.22 423.74,-553.22 423.74,-553.22 423.74,-537.2 423.74,-537.2 423.74,-531.2 429.74,-525.2 435.74,-525.2 435.74,-525.2 512.26,-525.2 512.26,-525.2 518.26,-525.2 524.26,-531.2 524.26,-537.2 524.26,-537.2 524.26,-553.22 524.26,-553.22 524.26,-559.22 518.26,-565.22 512.26,-565.22"/>
<text xml:space="preserve" text-anchor="middle" x="474" y="-548.06" font-family="Arial" font-size="12.00">Abstract Syntax</text>
<text xml:space="preserve" text-anchor="middle" x="474" y="-533.81" font-family="Arial" font-size="12.00">Tree (AST)</text>
</g>
<!-- Parser&#45;&gt;AST -->
<g id="edge2" class="edge">
<title>Parser&#45;&gt;AST</title>
<path fill="none" stroke="#1976d2" stroke-width="2" d="M474,-624.4C474,-611.38 474,-594.04 474,-578.99"/>
<polygon fill="#1976d2" stroke="#1976d2" stroke-width="2" points="477.5,-579.04 474,-569.04 470.5,-579.04 477.5,-579.04"/>
<text xml:space="preserve" text-anchor="middle" x="500.25" y="-597.72" font-family="Arial" font-size="10.00"> &#160;tokenize &amp;</text>
<text xml:space="preserve" text-anchor="middle" x="500.25" y="-585.72" font-family="Arial" font-size="10.00"> &#160;analyze</text>
</g>
<!-- CodeGen -->
<g id="node4" class="node">
<title>CodeGen</title>
<path fill="#ab47bc" stroke="#1976d2" stroke-width="2" d="M519.76,-477.2C519.76,-477.2 428.24,-477.2 428.24,-477.2 422.24,-477.2 416.24,-471.2 416.24,-465.2 416.24,-465.2 416.24,-449.18 416.24,-449.18 416.24,-443.18 422.24,-437.18 428.24,-437.18 428.24,-437.18 519.76,-437.18 519.76,-437.18 525.76,-437.18 531.76,-443.18 531.76,-449.18 531.76,-449.18 531.76,-465.2 531.76,-465.2 531.76,-471.2 525.76,-477.2 519.76,-477.2"/>
<text xml:space="preserve" text-anchor="middle" x="474" y="-460.04" font-family="Arial" font-size="12.00">Code Generator</text>
<text xml:space="preserve" text-anchor="middle" x="474" y="-445.79" font-family="Arial" font-size="12.00">(Liquid Templates)</text>
</g>
<!-- AST&#45;&gt;CodeGen -->
<g id="edge3" class="edge">
<title>AST&#45;&gt;CodeGen</title>
<path fill="none" stroke="#1976d2" stroke-width="2" d="M474,-524.26C474,-514.38 474,-502.2 474,-490.99"/>
<polygon fill="#1976d2" stroke="#1976d2" stroke-width="2" points="477.5,-491.06 474,-481.06 470.5,-491.06 477.5,-491.06"/>
<text xml:space="preserve" text-anchor="middle" x="497.62" y="-497.7" font-family="Arial" font-size="10.00"> &#160;transform</text>
</g>
<!-- Pipeline -->
<g id="node5" class="node">
<title>Pipeline</title>
<path fill="#c8e6c9" stroke="#388e3c" stroke-width="1.5" d="M518.64,-377.18C518.64,-377.18 429.36,-377.18 429.36,-377.18 423.36,-377.18 417.36,-371.18 417.36,-365.18 417.36,-365.18 417.36,-349.16 417.36,-349.16 417.36,-343.16 423.36,-337.16 429.36,-337.16 429.36,-337.16 518.64,-337.16 518.64,-337.16 524.64,-337.16 530.64,-343.16 530.64,-349.16 530.64,-349.16 530.64,-365.18 530.64,-365.18 530.64,-371.18 524.64,-377.18 518.64,-377.18"/>
<text xml:space="preserve" text-anchor="middle" x="474" y="-360.02" font-family="Arial" font-size="12.00">Clojure Pipeline</text>
<text xml:space="preserve" text-anchor="middle" x="474" y="-345.77" font-family="Arial" font-size="12.00">(Generated Code)</text>
</g>
<!-- CodeGen&#45;&gt;Pipeline -->
<g id="edge4" class="edge">
<title>CodeGen&#45;&gt;Pipeline</title>
<path fill="none" stroke="#1976d2" stroke-width="2" d="M474,-436.36C474,-423.25 474,-405.77 474,-390.66"/>
<polygon fill="#1976d2" stroke="#1976d2" stroke-width="2" points="477.5,-390.67 474,-380.67 470.5,-390.67 477.5,-390.67"/>
<text xml:space="preserve" text-anchor="middle" x="495.75" y="-409.68" font-family="Arial" font-size="10.00"> &#160;generate</text>
<text xml:space="preserve" text-anchor="middle" x="495.75" y="-397.68" font-family="Arial" font-size="10.00"> &#160;project</text>
</g>
<!-- Adapters -->
<g id="node6" class="node">
<title>Adapters</title>
<path fill="#81d4fa" stroke="#1976d2" stroke-width="1.5" d="M330.89,-266.66C330.89,-266.66 255.11,-266.66 255.11,-266.66 249.11,-266.66 243.11,-260.66 243.11,-254.66 243.11,-254.66 243.11,-238.64 243.11,-238.64 243.11,-232.64 249.11,-226.64 255.11,-226.64 255.11,-226.64 330.89,-226.64 330.89,-226.64 336.89,-226.64 342.89,-232.64 342.89,-238.64 342.89,-238.64 342.89,-254.66 342.89,-254.66 342.89,-260.66 336.89,-266.66 330.89,-266.66"/>
<text xml:space="preserve" text-anchor="middle" x="293" y="-249.5" font-family="Arial" font-size="12.00">Protocol&#45;Based</text>
<text xml:space="preserve" text-anchor="middle" x="293" y="-235.25" font-family="Arial" font-size="12.00">Adapters</text>
</g>
<!-- Pipeline&#45;&gt;Adapters -->
<g id="edge5" class="edge">
<title>Pipeline&#45;&gt;Adapters</title>
<path fill="none" stroke="#0277bd" stroke-width="2" stroke-dasharray="5,2" d="M441.22,-336.52C411.97,-318.98 368.91,-293.16 336.73,-273.87"/>
<polygon fill="#0277bd" stroke="#0277bd" stroke-width="2" points="338.81,-271.04 328.44,-268.9 335.21,-277.04 338.81,-271.04"/>
<text xml:space="preserve" text-anchor="middle" x="423.79" y="-309.66" font-family="Arial" font-size="10.00"> &#160;uses</text>
</g>
<!-- SourceDB -->
<g id="node10" class="node">
<title>SourceDB</title>
<path fill="#ffccbc" stroke="#e64a19" stroke-width="2" d="M439.89,-83.84C439.89,-87.58 405.43,-90.62 363,-90.62 320.57,-90.62 286.11,-87.58 286.11,-83.84 286.11,-83.84 286.11,-22.78 286.11,-22.78 286.11,-19.04 320.57,-16 363,-16 405.43,-16 439.89,-19.04 439.89,-22.78 439.89,-22.78 439.89,-83.84 439.89,-83.84"/>
<path fill="none" stroke="#e64a19" stroke-width="2" d="M439.89,-83.84C439.89,-80.09 405.43,-77.05 363,-77.05 320.57,-77.05 286.11,-80.09 286.11,-83.84"/>
<text xml:space="preserve" text-anchor="middle" x="363" y="-63.29" font-family="Arial" font-size="12.00">Source Database</text>
<text xml:space="preserve" text-anchor="middle" x="363" y="-49.04" font-family="Arial" font-size="12.00">(Cassandra, PostgreSQL,</text>
<text xml:space="preserve" text-anchor="middle" x="363" y="-34.79" font-family="Arial" font-size="12.00">MongoDB)</text>
</g>
<!-- Pipeline&#45;&gt;SourceDB -->
<g id="edge11" class="edge">
<title>Pipeline&#45;&gt;SourceDB</title>
<path fill="none" stroke="#e64a19" stroke-width="1.5" stroke-dasharray="5,2" d="M473.41,-336.81C471.63,-280.18 466.02,-118.25 460,-108.62 458.32,-105.94 451.13,-101.06 441.36,-95.29"/>
<polygon fill="#e64a19" stroke="#e64a19" stroke-width="1.5" points="443.23,-92.33 432.81,-90.4 439.75,-98.4 443.23,-92.33"/>
<text xml:space="preserve" text-anchor="middle" x="486.35" y="-199.14" font-family="Arial" font-size="10.00"> &#160;extract</text>
</g>
<!-- SinkDB -->
<g id="node11" class="node">
<title>SinkDB</title>
<path fill="#c5e1a5" stroke="#558b2f" stroke-width="2" d="M582.26,-83.84C582.26,-87.58 554.36,-90.62 520,-90.62 485.64,-90.62 457.74,-87.58 457.74,-83.84 457.74,-83.84 457.74,-22.78 457.74,-22.78 457.74,-19.04 485.64,-16 520,-16 554.36,-16 582.26,-19.04 582.26,-22.78 582.26,-22.78 582.26,-83.84 582.26,-83.84"/>
<path fill="none" stroke="#558b2f" stroke-width="2" d="M582.26,-83.84C582.26,-80.09 554.36,-77.05 520,-77.05 485.64,-77.05 457.74,-80.09 457.74,-83.84"/>
<text xml:space="preserve" text-anchor="middle" x="520" y="-63.29" font-family="Arial" font-size="12.00">Sink Database</text>
<text xml:space="preserve" text-anchor="middle" x="520" y="-49.04" font-family="Arial" font-size="12.00">(Druid, PostgreSQL,</text>
<text xml:space="preserve" text-anchor="middle" x="520" y="-34.79" font-family="Arial" font-size="12.00">Elasticsearch)</text>
</g>
<!-- Pipeline&#45;&gt;SinkDB -->
<g id="edge12" class="edge">
<title>Pipeline&#45;&gt;SinkDB</title>
<path fill="none" stroke="#558b2f" stroke-width="1.5" stroke-dasharray="5,2" d="M481.99,-336.77C484.13,-331.15 486.31,-324.97 488,-319.16 502.03,-270.99 504.41,-258.38 511,-208.64 515.63,-173.68 517.88,-133.95 518.97,-103.56"/>
<polygon fill="#558b2f" stroke="#558b2f" stroke-width="1.5" points="522.46,-103.94 519.29,-93.83 515.46,-103.71 522.46,-103.94"/>
<text xml:space="preserve" text-anchor="middle" x="524.38" y="-199.14" font-family="Arial" font-size="10.00"> &#160;load</text>
</g>
<!-- Sources -->
<g id="node7" class="node">
<title>Sources</title>
<path fill="#4fc3f7" stroke="#1976d2" stroke-width="2" d="M284.26,-178.64C284.26,-178.64 153.74,-178.64 153.74,-178.64 147.74,-178.64 141.74,-172.64 141.74,-166.64 141.74,-166.64 141.74,-150.62 141.74,-150.62 141.74,-144.62 147.74,-138.62 153.74,-138.62 153.74,-138.62 284.26,-138.62 284.26,-138.62 290.26,-138.62 296.26,-144.62 296.26,-150.62 296.26,-150.62 296.26,-166.64 296.26,-166.64 296.26,-172.64 290.26,-178.64 284.26,-178.64"/>
<text xml:space="preserve" text-anchor="middle" x="219" y="-161.48" font-family="Arial" font-size="12.00">Source Adapters</text>
<text xml:space="preserve" text-anchor="middle" x="219" y="-147.23" font-family="Arial" font-size="12.00">(Cassandra, PostgreSQL)</text>
</g>
<!-- Adapters&#45;&gt;Sources -->
<g id="edge6" class="edge">
<title>Adapters&#45;&gt;Sources</title>
<path fill="none" stroke="#0277bd" d="M276.21,-226.13C266.53,-214.88 254.2,-200.54 243.46,-188.06"/>
<polygon fill="#0277bd" stroke="#0277bd" points="246.14,-185.82 236.97,-180.52 240.84,-190.38 246.14,-185.82"/>
</g>
<!-- Sinks -->
<g id="node8" class="node">
<title>Sinks</title>
<path fill="#29b6f6" stroke="#1976d2" stroke-width="2" d="M427.64,-178.64C427.64,-178.64 326.36,-178.64 326.36,-178.64 320.36,-178.64 314.36,-172.64 314.36,-166.64 314.36,-166.64 314.36,-150.62 314.36,-150.62 314.36,-144.62 320.36,-138.62 326.36,-138.62 326.36,-138.62 427.64,-138.62 427.64,-138.62 433.64,-138.62 439.64,-144.62 439.64,-150.62 439.64,-150.62 439.64,-166.64 439.64,-166.64 439.64,-172.64 433.64,-178.64 427.64,-178.64"/>
<text xml:space="preserve" text-anchor="middle" x="377" y="-161.48" font-family="Arial" font-size="12.00">Sink Adapters</text>
<text xml:space="preserve" text-anchor="middle" x="377" y="-147.23" font-family="Arial" font-size="12.00">(Druid, PostgreSQL)</text>
</g>
<!-- Adapters&#45;&gt;Sinks -->
<g id="edge7" class="edge">
<title>Adapters&#45;&gt;Sinks</title>
<path fill="none" stroke="#0277bd" d="M312.06,-226.13C323.26,-214.67 337.59,-199.98 349.95,-187.34"/>
<polygon fill="#0277bd" stroke="#0277bd" points="352.18,-190.05 356.67,-180.45 347.18,-185.16 352.18,-190.05"/>
</g>
<!-- Utils -->
<g id="node9" class="node">
<title>Utils</title>
<path fill="#03a9f4" stroke="#1976d2" stroke-width="2" d="M111.64,-178.64C111.64,-178.64 28.36,-178.64 28.36,-178.64 22.36,-178.64 16.36,-172.64 16.36,-166.64 16.36,-166.64 16.36,-150.62 16.36,-150.62 16.36,-144.62 22.36,-138.62 28.36,-138.62 28.36,-138.62 111.64,-138.62 111.64,-138.62 117.64,-138.62 123.64,-144.62 123.64,-150.62 123.64,-150.62 123.64,-166.64 123.64,-166.64 123.64,-172.64 117.64,-178.64 111.64,-178.64"/>
<text xml:space="preserve" text-anchor="middle" x="70" y="-161.48" font-family="Arial" font-size="12.00">Utilities</text>
<text xml:space="preserve" text-anchor="middle" x="70" y="-147.23" font-family="Arial" font-size="12.00">(Watermark, etc.)</text>
</g>
<!-- Adapters&#45;&gt;Utils -->
<g id="edge8" class="edge">
<title>Adapters&#45;&gt;Utils</title>
<path fill="none" stroke="#0277bd" d="M242.4,-226.13C209.67,-213.51 166.85,-196.99 132.08,-183.58"/>
<polygon fill="#0277bd" stroke="#0277bd" points="133.56,-180.4 122.97,-180.07 131.04,-186.93 133.56,-180.4"/>
</g>
<!-- Sources&#45;&gt;SourceDB -->
<g id="edge9" class="edge">
<title>Sources&#45;&gt;SourceDB</title>
<path fill="none" stroke="#e64a19" stroke-width="2" d="M246.76,-137.71C262.42,-126.48 282.63,-111.98 301.79,-98.23"/>
<polygon fill="#e64a19" stroke="#e64a19" stroke-width="2" points="303.75,-101.13 309.83,-92.46 299.67,-95.44 303.75,-101.13"/>
<text xml:space="preserve" text-anchor="middle" x="299.06" y="-111.12" font-family="Arial" font-size="10.00"> &#160;read</text>
</g>
<!-- Sinks&#45;&gt;SinkDB -->
<g id="edge10" class="edge">
<title>Sinks&#45;&gt;SinkDB</title>
<path fill="none" stroke="#558b2f" stroke-width="2" d="M404.57,-137.71C420.46,-126.23 441.08,-111.33 460.49,-97.31"/>
<polygon fill="#558b2f" stroke="#558b2f" stroke-width="2" points="462.29,-100.33 468.35,-91.63 458.19,-94.65 462.29,-100.33"/>
<text xml:space="preserve" text-anchor="middle" x="457.71" y="-111.12" font-family="Arial" font-size="10.00"> &#160;write</text>
</g>
</g>
</svg>
